<svg width="306" height="220" viewBox="0 0 306 220" fill="none" xmlns="http://www.w3.org/2000/svg">
<g clip-path="url(#clip0_18603_249)">
<path d="M266.709 114.151C111.276 96.0748 120.326 143.062 144.28 168.815C146.981 184.115 183.676 179.432 201.685 175.179C204.941 169.627 216.581 158.051 237.09 156.161C257.6 154.27 254.787 149.018 250.816 146.628C281.551 140.227 268.623 136.371 258.317 135.243C347.456 132.05 295.918 117.088 266.709 114.151Z" fill="#D9D9D9"/>
<path d="M270.61 115.987C112.132 99.6609 122.836 146.919 147.998 172.589C151.234 187.98 188.36 182.812 206.518 178.304C209.647 172.667 221.099 160.855 241.873 158.699C262.647 156.543 259.62 151.282 255.51 148.921C286.527 142.093 273.27 138.364 262.764 137.352C340.482 126.509 300.378 118.591 270.61 115.987Z" fill="url(#paint0_linear_18603_249)"/>
<line x1="1.5" y1="-1.5" x2="29.5388" y2="-1.5" transform="matrix(-0.93696 0.349437 0.349437 0.93696 130.15 190.802)" stroke="#FF6B0A" stroke-width="3" stroke-linecap="round"/>
<path d="M89.7686 205.675L101.269 198.999" stroke="#FF6B0A" stroke-width="3" stroke-linecap="round"/>
<path d="M92.4819 198.978L101.255 198.416" stroke="#FF6B0A" stroke-width="3" stroke-linecap="round"/>
<path d="M93.9033 210.017L102.277 199.161" stroke="#FF6B0A" stroke-width="3" stroke-linecap="round"/>
<path d="M35.3653 89.5418C191.543 99.2776 174.314 143.919 146.178 165.023C140.81 179.602 105.524 168.496 88.5528 161.12C86.3316 155.079 76.9265 141.625 57.0758 136.132C37.2251 130.64 40.9241 125.968 45.255 124.319C16.1392 112.577 29.546 111.071 39.8889 111.786C-47.2754 92.8577 6.09741 87.2592 35.3653 89.5418Z" fill="#D9D9D9"/>
<path d="M30.8302 92.7117C189.695 104.71 170.79 149.326 141.48 170.134C135.57 184.708 99.946 173.047 82.8729 165.394C80.7915 159.293 71.6129 145.639 51.549 139.838C31.4851 134.037 35.3958 129.395 39.8591 127.799C10.5418 115.587 24.25 114.264 34.7688 115.129C-39.8008 90.6939 1.07237 90.0028 30.8302 92.7117Z" fill="url(#paint1_linear_18603_249)"/>
<path d="M197.921 147.946C191.202 179.277 146.004 226.745 18.9673 165.965C79.8963 139.961 200.988 99.9516 197.921 147.946Z" fill="url(#paint2_linear_18603_249)"/>
<path d="M146.892 65.9224C140.847 51.4128 149.411 45.7702 154.449 44.7626C158.228 47.2816 171.68 52.3197 165.029 52.3197C158.379 52.3197 160.243 61.3882 162.007 65.9224C194.653 110.056 175.609 134.692 165.785 141.493C154.449 136.959 135.557 126.53 150.671 121.089C169.564 114.288 154.449 84.0594 146.892 65.9224Z" fill="white"/>
<ellipse cx="140.142" cy="177.669" rx="10.8225" ry="41.9399" transform="rotate(74.2873 140.142 177.669)" fill="url(#paint3_radial_18603_249)"/>
<line x1="1.5" y1="-1.5" x2="29.5389" y2="-1.5" transform="matrix(-0.978284 0.20727 0.20727 0.978284 114.557 189.076)" stroke="#FF6B0A" stroke-width="3" stroke-linecap="round"/>
<path d="M72.6807 199.132L84.8793 193.838" stroke="#FF6B0A" stroke-width="3" stroke-linecap="round"/>
<path d="M76.1553 192.796L84.9341 193.258" stroke="#FF6B0A" stroke-width="3" stroke-linecap="round"/>
<path d="M76.2827 203.926L85.862 194.117" stroke="#FF6B0A" stroke-width="3" stroke-linecap="round"/>
<path d="M188.338 73.6903C166.906 85.5077 156.958 78.6142 154.663 73.6903C139.015 64.386 142.645 32.6299 169.435 32.6299C196.224 32.6299 215.127 58.9186 188.338 73.6903Z" fill="white"/>
<path d="M173.656 65.0195L177.068 62.8221C183.197 58.8757 190.584 57.3759 197.767 58.6198C198.173 58.6901 198.498 58.9939 198.597 59.3939L205.648 87.9492C206.104 89.7956 203.968 91.176 202.472 90.0023L173.549 67.3142C172.786 66.7159 172.841 65.5443 173.656 65.0195Z" fill="#DF5B04"/>
<path d="M173.047 64.8561L175.844 63.1166C182.438 59.0158 190.292 57.4375 197.958 58.6729C198.258 58.7212 198.527 58.8862 198.705 59.1318L216.363 83.4258C217.577 85.0963 215.771 87.2873 213.899 86.4141L173.202 67.4252C172.148 66.9338 172.06 65.4699 173.047 64.8561Z" fill="#FF6B0A"/>
<circle r="2.75405" transform="matrix(-1 0 0 1 197.725 51.4075)" fill="#797979"/>
<circle r="2.75405" transform="matrix(-1 0 0 1 169.434 54.1615)" fill="#797979"/>
<path d="M189.392 17.0115L188.768 13.7217L149.446 21.1785L152.829 39.018L154.211 38.756L187.005 34.6196L192.151 31.5613L189.8 19.161L189.993 19.1506L189.964 17.0079L189.392 17.0115Z" fill="#373500"/>
<ellipse rx="20.5856" ry="2.04591" transform="matrix(-0.982491 0.186312 0.186312 0.982491 169.748 20.8481)" fill="#0C0632"/>
<path d="M192.617 31.5324C206.014 32.3045 218.731 49.6424 162.844 40.491L192.617 31.5324Z" fill="#373500"/>
<path d="M192.71 31.387C190.625 37.5925 156.815 43.6726 152.245 39.0603L149.565 24.7146C155.528 25.5205 166.135 20.1387 175.306 21.7115L187.021 32.1343L189.965 17.0079L192.71 31.387Z" fill="#494600"/>
<ellipse rx="20.0071" ry="2.04591" transform="matrix(-0.982491 0.186312 0.186312 0.982491 169.159 17.7005)" fill="#373500"/>
<ellipse rx="20.2886" ry="2.04591" transform="matrix(-0.982491 0.186312 0.186312 0.982491 169.457 20.9034)" fill="#373500"/>
<path d="M151.421 11.3581C151.373 11.4025 151.331 11.4373 151.297 11.475C151.012 11.7823 150.897 12.0827 150.981 12.4438C151.016 12.5967 151.077 12.7485 151.125 12.898C151.169 13.0302 151.211 13.1601 151.251 13.2932C151.261 13.3278 151.275 13.3403 151.33 13.3314C151.445 13.3096 151.56 13.3227 151.645 13.3885C151.721 13.4457 151.738 13.5159 151.707 13.5877C151.677 13.6618 151.599 13.7082 151.502 13.7361C151.452 13.7488 151.412 13.7431 151.37 13.717C151.038 13.5209 150.782 13.2839 150.59 13.0094C150.432 12.7818 150.339 12.5372 150.235 12.2984C150.175 12.1625 150.107 12.0259 150.053 11.8883C150.018 11.8019 149.975 11.7227 149.904 11.6479C149.833 11.5732 149.743 11.5114 149.627 11.4643C149.573 11.5499 149.554 11.6397 149.572 11.728C149.591 11.8108 149.625 11.8949 149.661 11.9735C149.7 12.0591 149.755 12.1404 149.8 12.222C149.918 12.4384 150.041 12.6539 150.15 12.8729C150.328 13.2387 150.37 13.6131 150.266 13.9933C150.254 14.0441 150.213 14.0678 150.148 14.0792C149.986 14.1105 149.824 14.0539 149.771 13.948C149.722 13.8491 149.799 13.7283 149.951 13.6837C150.006 13.6669 150.003 13.6519 149.98 13.6207C149.864 13.4564 149.751 13.289 149.639 13.1239C149.509 12.937 149.395 12.7458 149.192 12.591C148.922 12.3867 148.624 12.2803 148.24 12.2173C148.212 12.2138 148.184 12.2103 148.144 12.2047C148.155 12.2259 148.162 12.24 148.169 12.2541C148.623 13.1652 149.058 14.0387 149.511 14.9498C149.537 15.0016 149.537 15.0016 149.606 14.9838C149.867 14.9167 150.13 14.8489 150.391 14.7818C150.437 14.77 150.461 14.7743 150.488 14.8047C150.688 15.0347 150.969 15.1961 151.333 15.2777C151.409 15.2954 151.482 15.3242 151.557 15.3474C151.644 15.1868 151.81 15.0486 151.864 14.8728C151.907 14.7287 151.927 14.5828 151.895 14.4369C151.89 14.4037 151.905 14.3892 151.945 14.379C152.212 14.3103 152.475 14.2424 152.742 14.1737C152.788 14.1618 152.804 14.1497 152.786 14.112C152.329 13.1962 151.891 12.3157 151.435 11.3999C151.439 11.3935 151.434 11.384 151.421 11.3581ZM151.34 11.8519C151.348 11.8525 151.358 11.85 151.366 11.8506C151.374 11.8671 151.382 11.8836 151.39 11.9001C151.609 12.3403 151.811 12.7453 152.03 13.1855C152.067 13.2585 152.067 13.2585 151.961 13.2857C151.922 13.2958 151.899 13.2939 151.875 13.2682C151.792 13.1912 151.68 13.1457 151.55 13.1313C151.494 13.1243 151.477 13.1048 151.467 13.0702C151.416 12.9001 151.367 12.7268 151.306 12.5593C151.245 12.3838 151.234 12.2431 151.279 12.0643C151.294 11.9912 151.32 11.9234 151.34 11.8519ZM148.629 12.558C148.635 12.5563 148.637 12.5531 148.644 12.5514C148.673 12.5652 148.702 12.5789 148.728 12.5935C148.927 12.7017 149.087 12.7852 149.204 12.9438C149.349 13.1456 149.487 13.349 149.629 13.5515C149.65 13.5781 149.649 13.5994 149.618 13.6261C149.531 13.6988 149.484 13.7828 149.485 13.8809C149.485 13.926 149.453 13.9448 149.362 13.9551C149.305 13.9616 149.311 13.9282 149.301 13.907C149.078 13.4597 148.873 13.0477 148.649 12.598C148.638 12.5848 148.631 12.5706 148.629 12.558ZM151.644 13.9172C151.659 13.9106 151.678 13.9032 151.699 13.8925C151.89 13.8061 152.015 13.6916 152.005 13.5216C152.004 13.4978 152.012 13.485 152.043 13.4797C152.066 13.4738 152.089 13.4679 152.112 13.4619C152.145 13.4534 152.163 13.4595 152.175 13.483C152.263 13.6596 152.352 13.8385 152.437 14.0159C152.441 14.0254 152.426 14.0533 152.412 14.0567C152.236 14.1049 152.054 14.1516 151.875 14.195C151.862 14.1984 151.828 14.1887 151.82 14.1801C151.762 14.0941 151.704 14.008 151.644 13.9172ZM150.234 14.2803C150.268 14.3779 150.296 14.4716 150.328 14.5668C150.338 14.5936 150.311 14.6004 150.285 14.6071C150.117 14.6504 149.951 14.6905 149.784 14.7361C149.732 14.7497 149.708 14.7398 149.694 14.7036C149.618 14.545 149.537 14.3882 149.457 14.2281C149.42 14.1551 149.42 14.1551 149.523 14.1288C149.552 14.1211 149.579 14.1144 149.601 14.1377C149.73 14.2613 149.909 14.3002 150.114 14.2927C150.157 14.2896 150.197 14.2818 150.234 14.2803ZM150.602 13.4366C150.784 13.5941 150.964 13.7469 151.188 13.8752C151.111 13.951 151.039 14.0227 150.962 14.0928C150.952 14.1033 150.917 14.1071 150.897 14.1043C150.793 14.0886 150.692 14.0666 150.588 14.051C150.556 14.046 150.543 14.036 150.549 14.0105C150.6 13.8355 150.605 13.6589 150.597 13.4802C150.601 13.4659 150.601 13.45 150.602 13.4366ZM151.598 14.4737C151.672 14.5927 151.613 14.8842 151.519 14.9428C151.515 14.9413 151.51 14.9398 151.51 14.9398C151.449 14.8174 151.385 14.6958 151.328 14.5749C151.324 14.5655 151.34 14.5454 151.352 14.5397C151.432 14.5137 151.515 14.4949 151.598 14.4737ZM151.245 15.0188C151.074 14.9964 150.784 14.7869 150.76 14.6868C150.832 14.6681 150.911 14.6478 150.984 14.6291C151.027 14.6181 151.046 14.6265 151.06 14.6547C151.109 14.7536 151.158 14.8525 151.207 14.9514C151.221 14.9717 151.232 14.9929 151.245 15.0188ZM151.39 14.3174C151.347 14.3284 151.302 14.3426 151.257 14.349C151.244 14.3524 151.208 14.3403 151.208 14.3324C151.176 14.2237 151.224 14.1105 151.35 14.0513C151.378 14.039 151.396 14.0394 151.413 14.0589C151.458 14.1191 151.5 14.1801 151.546 14.2427C151.561 14.2653 151.546 14.2799 151.516 14.2875C151.475 14.2953 151.433 14.3063 151.39 14.3174ZM150.784 14.4735C150.744 14.4837 150.708 14.493 150.668 14.5032C150.63 14.5157 150.601 14.5099 150.592 14.4776C150.573 14.4162 150.553 14.3548 150.537 14.2925C150.53 14.2626 150.546 14.2504 150.59 14.2497C150.728 14.2433 150.888 14.311 150.938 14.402C150.942 14.4114 150.927 14.4338 150.915 14.4395C150.87 14.4538 150.826 14.4625 150.784 14.4735Z" fill="#FFD500"/>
<ellipse rx="10.2219" ry="11.1574" transform="matrix(-0.761754 0.647867 0.647867 0.761754 160.678 66.5292)" fill="url(#paint4_radial_18603_249)"/>
</g>
<defs>
<linearGradient id="paint0_linear_18603_249" x1="211.71" y1="110.867" x2="219.316" y2="178.266" gradientUnits="userSpaceOnUse">
<stop stop-color="white"/>
<stop offset="1" stop-color="#F5F5F5"/>
</linearGradient>
<linearGradient id="paint1_linear_18603_249" x1="89.7063" y1="98.1043" x2="70.284" y2="163.09" gradientUnits="userSpaceOnUse">
<stop stop-color="white"/>
<stop offset="1" stop-color="#F9F9F9"/>
</linearGradient>
<linearGradient id="paint2_linear_18603_249" x1="145.942" y1="132.211" x2="70.7086" y2="183.339" gradientUnits="userSpaceOnUse">
<stop stop-color="white"/>
<stop offset="1" stop-color="#F5F5F5"/>
</linearGradient>
<radialGradient id="paint3_radial_18603_249" cx="0" cy="0" r="1" gradientUnits="userSpaceOnUse" gradientTransform="translate(140.142 177.669) rotate(90) scale(41.9399 10.8225)">
<stop stop-color="#E8E8E8"/>
<stop offset="1" stop-color="#EFEFEF" stop-opacity="0.5"/>
</radialGradient>
<radialGradient id="paint4_radial_18603_249" cx="0" cy="0" r="1" gradientUnits="userSpaceOnUse" gradientTransform="translate(10.2219 11.1574) rotate(90) scale(11.1574 10.2219)">
<stop stop-color="#FFBBBB"/>
<stop offset="1" stop-color="#FFBBBB" stop-opacity="0"/>
</radialGradient>
<clipPath id="clip0_18603_249">
<rect width="306" height="220" fill="white"/>
</clipPath>
</defs>
</svg>
